name C:\Users\r0593348\3dpredictsim\Results\Batchsim_tmt_linear\Pog_s1_tmt_aCst_d05_k2000_ig24.mot
datacolumns 128
datarows 4
range 0.53467959 0.56676036
endheader
time	pelvis_tilt	pelvis_list	pelvis_rotation	pelvis_tx	pelvis_ty	pelvis_tz	hip_flexion_l	hip_adduction_l	hip_rotation_l	hip_flexion_r	hip_adduction_r	hip_rotation_r	knee_angle_l	knee_angle_r	ankle_angle_l	ankle_angle_r	subtalar_angle_l	subtalar_angle_r	tmt_angle_l	tmt_angle_r	mtp_angle_l	mtp_angle_r	lumbar_extension	lumbar_bending	lumbar_rotation	arm_flex_l	arm_add_l	arm_rot_l	arm_flex_r	arm_add_r	arm_rot_r	elbow_flex_l	elbow_flex_r	pro_sup_l	pro_sup_r	glut_med1_l/activation	glut_med2_l/activation	glut_med3_l/activation	glut_min1_l/activation	glut_min2_l/activation	glut_min3_l/activation	semimem_l/activation	semiten_l/activation	bifemlh_l/activation	bifemsh_l/activation	sar_l/activation	add_long_l/activation	add_brev_l/activation	add_mag1_l/activation	add_mag2_l/activation	add_mag3_l/activation	tfl_l/activation	pect_l/activation	grac_l/activation	glut_max1_l/activation	glut_max2_l/activation	glut_max3_l/activation	iliacus_l/activation	psoas_l/activation	quad_fem_l/activation	gem_l/activation	peri_l/activation	rect_fem_l/activation	vas_med_l/activation	vas_int_l/activation	vas_lat_l/activation	med_gas_l/activation	lat_gas_l/activation	soleus_l/activation	tib_post_l/activation	flex_dig_l/activation	flex_hal_l/activation	tib_ant_l/activation	per_brev_l/activation	per_long_l/activation	per_tert_l/activation	ext_dig_l/activation	ext_hal_l/activation	ercspn_l/activation	intobl_l/activation	extobl_l/activation	glut_med1_r/activation	glut_med2_r/activation	glut_med3_r/activation	glut_min1_r/activation	glut_min2_r/activation	glut_min3_r/activation	semimem_r/activation	semiten_r/activation	bifemlh_r/activation	bifemsh_r/activation	sar_r/activation	add_long_r/activation	add_brev_r/activation	add_mag1_r/activation	add_mag2_r/activation	add_mag3_r/activation	tfl_r/activation	pect_r/activation	grac_r/activation	glut_max1_r/activation	glut_max2_r/activation	glut_max3_r/activation	iliacus_r/activation	psoas_r/activation	quad_fem_r/activation	gem_r/activation	peri_r/activation	rect_fem_r/activation	vas_med_r/activation	vas_int_r/activation	vas_lat_r/activation	med_gas_r/activation	lat_gas_r/activation	soleus_r/activation	tib_post_r/activation	flex_dig_r/activation	flex_hal_r/activation	tib_ant_r/activation	per_brev_r/activation	per_long_r/activation	per_tert_r/activation	ext_dig_r/activation	ext_hal_r/activation	ercspn_r/activation	intobl_r/activation	extobl_r/activation	
          0.53467959	         -2.92928840	          2.16942874	         -5.32893127	          0.66834949	          0.85800082	          0.00216366	         31.39047277	          3.11131986	         -2.31306945	        -18.19327496	         -1.63760258	          6.65831858	        -14.58878245	         -6.47516045	          6.94167016	          1.25424543	         -2.79729955	          9.51815619	          0.02021814	          0.50731676	         -0.11783660	         21.52947821	         -1.90298256	         -0.52331249	          1.92449804	         -7.95200446	        -13.50103649	         10.42178383	          8.46912603	        -13.45537553	         18.46623932	         12.42269018	         32.51943877	         86.51662706	         86.51662706	          0.05891121	          0.05891115	          0.05000001	          0.05891132	          0.05891131	          0.05000047	          0.05891133	          0.05891099	          0.23030381	          0.05000004	          0.05000007	          0.12979988	          0.28513588	          0.12806039	          0.13122590	          0.10059748	          0.05000001	          0.07804042	          0.09664860	          0.05000005	          0.14756141	          0.15715030	          0.05891130	          0.05000004	          0.16604167	          0.25800264	          0.14182582	          0.05260964	          0.13119455	          0.12846006	          0.11552140	          0.05047352	          0.05159502	          0.05443179	          0.05000000	          0.05000003	          0.05000002	          0.56806764	          0.35689852	          0.20242510	          0.35554758	          0.55494432	          0.29493295	          0.06981030	          0.09951183	          0.10515144	          0.28150404	          0.10485725	          0.07389655	          0.30796029	          0.20335564	          0.11062511	          0.05000022	          0.05000002	          0.05000001	          0.07170477	          0.10732652	          0.09700396	          0.05000041	          0.05000014	          0.05000023	          0.05000008	          0.31819436	          0.09637678	          0.05000020	          0.05000031	          0.05000021	          0.05000014	          0.38100119	          0.63098250	          0.05000002	          0.05000005	          0.05403238	          0.22100260	          0.06981736	          0.06138243	          0.05496261	          0.31427070	          0.42398482	          0.30073559	          0.27762441	          0.26731545	          0.37140422	          0.05000000	          0.05891134	          0.14959649	          0.05000002	          0.05000000	          0.05000002	          0.05000000	          0.05000000	          0.05000000	
          0.54537318	         -2.92380370	          2.25583430	         -5.62065465	          0.68434032	          0.85691747	          0.00197556	         30.79880059	          3.44011876	         -2.07041879	        -18.05773699	         -1.93152241	          6.45031396	        -14.83858158	         -8.41278463	          6.31303854	          0.49573566	         -3.25037346	         10.41339035	          0.00911304	          0.48313643	         -0.07437797	         22.55168840	         -1.70890227	         -0.73531010	          1.99270214	         -8.97934435	        -13.49451180	         10.35502073	          8.31757293	        -13.46175593	         18.59200976	         12.30521770	         33.62531016	         86.51662706	         86.51662706	          0.05000000	          0.05000000	          0.11191870	          0.05000000	          0.05000000	          0.05000001	          0.05000001	          0.05000002	          0.19546650	          0.05000001	          0.05000094	          0.11016549	          0.24200432	          0.31213904	          0.20962142	          0.12387223	          0.05000012	          0.06623572	          0.09631118	          0.07356765	          0.12524047	          0.13337870	          0.05000001	          0.06941084	          0.41747051	          0.21897542	          0.12037229	          0.06941055	          0.13900961	          0.16899446	          0.14074706	          0.05000003	          0.06212849	          0.05000000	          0.06941082	          0.07149108	          0.06941095	          0.48213789	          0.40145172	          0.24214109	          0.30176507	          0.50504101	          0.25031940	          0.05925032	          0.08445899	          0.08924552	          0.23892184	          0.08899583	          0.06271846	          0.26137615	          0.17259469	          0.09389122	          0.05000115	          0.05000018	          0.05000110	          0.06085822	          0.09109161	          0.18520985	          0.09447703	          0.06945271	          0.05891200	          0.05891300	          0.27006215	          0.08179874	          0.05000101	          0.05000070	          0.05000071	          0.05251370	          0.32336837	          0.57964031	          0.05536911	          0.05891137	          0.05891131	          0.18757226	          0.14598575	          0.18569417	          0.14391224	          0.26673198	          0.35985001	          0.25524429	          0.24155609	          0.22687961	          0.31522318	          0.05000000	          0.05000003	          0.14970068	          0.05000001	          0.05000000	          0.05000001	          0.05279775	          0.06654093	          0.05460383	
          0.55606677	         -2.91474138	          2.34377155	         -5.88535205	          0.70059089	          0.85587394	          0.00179705	         30.05656446	          3.70421841	         -1.80790688	        -17.84228420	         -2.21920192	          6.23072066	        -15.37043293	        -10.48441503	          5.84234910	         -0.42540319	         -3.72597717	         11.25343385	         -0.00504497	          0.45257244	         -0.18636202	         23.42364471	         -1.49518858	         -0.95522670	          2.04942113	        -10.01792928	        -13.49267892	         10.33081070	          8.07949376	        -13.46580702	         18.63947403	         12.23787423	         34.70890255	         86.51662706	         86.51662706	          0.24971991	          0.24110227	          0.30080240	          0.34782106	          0.23280859	          0.22047795	          0.07154659	          0.05000022	          0.16589893	          0.08178184	          0.05511949	          0.09350113	          0.20539712	          0.26492279	          0.17791269	          0.10513466	          0.05000008	          0.05891134	          0.08174273	          0.14380527	          0.15289480	          0.11320296	          0.05891131	          0.05891130	          0.35432110	          0.18585173	          0.22919062	          0.05891104	          0.11798208	          0.14343122	          0.11945671	          0.05000041	          0.05273053	          0.05532484	          0.05891128	          0.06067687	          0.05891140	          0.54870715	          0.40526897	          0.20551333	          0.42884179	          0.58993188	          0.26429887	          0.06675162	          0.10791533	          0.07574564	          0.34683211	          0.07553372	          0.05323125	          0.35124216	          0.14648686	          0.07968860	          0.05000027	          0.05000003	          0.05000002	          0.05165241	          0.07731254	          0.15719378	          0.08018583	          0.05894684	          0.05000064	          0.05000145	          0.27258203	          0.06942643	          0.05000016	          0.05000032	          0.05000019	          0.05000011	          0.27445351	          0.54915715	          0.05000002	          0.05000012	          0.05000003	          0.15919881	          0.12390298	          0.15760483	          0.12214312	          0.22638430	          0.30541666	          0.21663431	          0.20501669	          0.19256029	          0.26754041	          0.05000000	          0.10419029	          0.17562298	          0.05000001	          0.05000000	          0.05000001	          0.05262364	          0.05647550	          0.05000000	
          0.56676036	         -2.90406495	          2.42374632	         -6.11657110	          0.71690435	          0.85488833	          0.00159500	         29.24160107	          3.95244301	         -1.54668258	        -17.52520542	         -2.49363293	          6.01489627	        -15.84816978	        -12.70117141	          5.45130789	         -1.50101959	         -4.21551602	         12.05021327	         -0.00917324	          0.41670566	         -0.19070650	         24.08931737	         -1.28326412	         -1.17273245	          2.09675716	        -11.02036337	        -13.49074045	         10.35322424	          7.78756266	        -13.47576784	         18.63536615	         12.19385384	         35.75106466	         86.51662706	         86.51662706	          0.32833242	          0.34296039	          0.38609304	          0.29520734	          0.19759267	          0.20435159	          0.06219367	          0.09870203	          0.14080394	          0.06941105	          0.05000009	          0.07935752	          0.17432737	          0.22484883	          0.18519745	          0.15956295	          0.05000004	          0.05000040	          0.12143771	          0.23573315	          0.19869084	          0.15841405	          0.05000001	          0.05000001	          0.30072411	          0.15773855	          0.19452180	          0.05000000	          0.10013537	          0.19411290	          0.13842497	          0.05000000	          0.05000000	          0.05000000	          0.05000000	          0.05149849	          0.05000008	          0.60714377	          0.36824518	          0.19260657	          0.66655474	          0.61182959	          0.35826581	          0.08256699	          0.09159133	          0.06428784	          0.29436802	          0.06410799	          0.05000001	          0.29811097	          0.12432828	          0.06763437	          0.05624710	          0.05000003	          0.05000003	          0.05000001	          0.06561776	          0.17089938	          0.06805647	          0.05003023	          0.05000035	          0.05000020	          0.24408919	          0.05892479	          0.05000016	          0.05000041	          0.05000027	          0.05000021	          0.23293783	          0.50363519	          0.05000003	          0.05000013	          0.05000003	          0.13511732	          0.11805817	          0.13376469	          0.13376432	          0.19213987	          0.25921727	          0.18386474	          0.17400449	          0.16343233	          0.22707045	          0.05000000	          0.11790712	          0.17048178	          0.05000002	          0.07789840	          0.05000003	          0.08566687	          0.05000000	          0.05000000	
